<svg width="320" height="100" viewBox="0 0 320 100" fill="none" xmlns="http://www.w3.org/2000/svg">
<path d="M38.845 45.43V50.225H32.335V70H26.35V50.225H19.84V45.43H38.845ZM53.8537 50.26C56.0937 50.26 57.8904 51.0067 59.2437 52.5C60.597 53.97 61.2737 56 61.2737 58.59V70H55.3237V59.395C55.3237 58.0883 54.9854 57.0733 54.3087 56.35C53.632 55.6267 52.722 55.265 51.5787 55.265C50.4354 55.265 49.5254 55.6267 48.8487 56.35C48.172 57.0733 47.8337 58.0883 47.8337 59.395V70H41.8487V44.1H47.8337V53.095C48.4404 52.2317 49.2687 51.5433 50.3187 51.03C51.3687 50.5167 52.547 50.26 53.8537 50.26ZM74.3227 70.28C72.4094 70.28 70.6827 69.8717 69.1427 69.055C67.626 68.2383 66.4244 67.0717 65.5377 65.555C64.6744 64.0383 64.2427 62.265 64.2427 60.235C64.2427 58.2283 64.686 56.4667 65.5727 54.95C66.4594 53.41 67.6727 52.2317 69.2127 51.415C70.7527 50.5983 72.4794 50.19 74.3927 50.19C76.306 50.19 78.0327 50.5983 79.5727 51.415C81.1127 52.2317 82.326 53.41 83.2127 54.95C84.0994 56.4667 84.5427 58.2283 84.5427 60.235C84.5427 62.2417 84.0877 64.015 83.1777 65.555C82.291 67.0717 81.066 68.2383 79.5027 69.055C77.9627 69.8717 76.236 70.28 74.3227 70.28ZM74.3227 65.1C75.466 65.1 76.4344 64.68 77.2277 63.84C78.0444 63 78.4527 61.7983 78.4527 60.235C78.4527 58.6717 78.056 57.47 77.2627 56.63C76.4927 55.79 75.536 55.37 74.3927 55.37C73.226 55.37 72.2577 55.79 71.4877 56.63C70.7177 57.4467 70.3327 58.6483 70.3327 60.235C70.3327 61.7983 70.706 63 71.4527 63.84C72.2227 64.68 73.1794 65.1 74.3227 65.1ZM112.638 50.26C115.065 50.26 116.99 50.995 118.413 52.465C119.86 53.935 120.583 55.9767 120.583 58.59V70H114.633V59.395C114.633 58.135 114.295 57.1667 113.618 56.49C112.965 55.79 112.055 55.44 110.888 55.44C109.721 55.44 108.8 55.79 108.123 56.49C107.47 57.1667 107.143 58.135 107.143 59.395V70H101.193V59.395C101.193 58.135 100.855 57.1667 100.178 56.49C99.5245 55.79 98.6145 55.44 97.4479 55.44C96.2812 55.44 95.3595 55.79 94.6829 56.49C94.0295 57.1667 93.7029 58.135 93.7029 59.395V70H87.7179V50.47H93.7029V52.92C94.3095 52.1033 95.1029 51.4617 96.0829 50.995C97.0629 50.505 98.1712 50.26 99.4079 50.26C100.878 50.26 102.185 50.575 103.328 51.205C104.495 51.835 105.405 52.7333 106.058 53.9C106.735 52.8267 107.656 51.9517 108.823 51.275C109.99 50.5983 111.261 50.26 112.638 50.26ZM123.579 60.2C123.579 58.1933 123.952 56.4317 124.699 54.915C125.469 53.3983 126.507 52.2317 127.814 51.415C129.12 50.5983 130.579 50.19 132.189 50.19C133.565 50.19 134.767 50.47 135.794 51.03C136.844 51.59 137.649 52.325 138.209 53.235V50.47H144.194V70H138.209V67.235C137.625 68.145 136.809 68.88 135.759 69.44C134.732 70 133.53 70.28 132.154 70.28C130.567 70.28 129.12 69.8717 127.814 69.055C126.507 68.215 125.469 67.0367 124.699 65.52C123.952 63.98 123.579 62.2067 123.579 60.2ZM138.209 60.235C138.209 58.7417 137.789 57.5633 136.949 56.7C136.132 55.8367 135.129 55.405 133.939 55.405C132.749 55.405 131.734 55.8367 130.894 56.7C130.077 57.54 129.669 58.7067 129.669 60.2C129.669 61.6933 130.077 62.8833 130.894 63.77C131.734 64.6333 132.749 65.065 133.939 65.065C135.129 65.065 136.132 64.6333 136.949 63.77C137.789 62.9067 138.209 61.7283 138.209 60.235ZM156.469 70.28C154.765 70.28 153.249 69.9883 151.919 69.405C150.589 68.8217 149.539 68.0283 148.769 67.025C147.999 65.9983 147.567 64.855 147.474 63.595H153.389C153.459 64.2717 153.774 64.82 154.334 65.24C154.894 65.66 155.582 65.87 156.399 65.87C157.145 65.87 157.717 65.73 158.114 65.45C158.534 65.1467 158.744 64.7617 158.744 64.295C158.744 63.735 158.452 63.3267 157.869 63.07C157.285 62.79 156.34 62.4867 155.034 62.16C153.634 61.8333 152.467 61.495 151.534 61.145C150.6 60.7717 149.795 60.2 149.119 59.43C148.442 58.6367 148.104 57.575 148.104 56.245C148.104 55.125 148.407 54.11 149.014 53.2C149.644 52.2667 150.554 51.5317 151.744 50.995C152.957 50.4583 154.392 50.19 156.049 50.19C158.499 50.19 160.424 50.7967 161.824 52.01C163.247 53.2233 164.064 54.8333 164.274 56.84H158.744C158.65 56.1633 158.347 55.6267 157.834 55.23C157.344 54.8333 156.69 54.635 155.874 54.635C155.174 54.635 154.637 54.775 154.264 55.055C153.89 55.3117 153.704 55.6733 153.704 56.14C153.704 56.7 153.995 57.12 154.579 57.4C155.185 57.68 156.119 57.96 157.379 58.24C158.825 58.6133 160.004 58.9867 160.914 59.36C161.824 59.71 162.617 60.2933 163.294 61.11C163.994 61.9033 164.355 62.9767 164.379 64.33C164.379 65.4733 164.052 66.5 163.399 67.41C162.769 68.2967 161.847 68.9967 160.634 69.51C159.444 70.0233 158.055 70.28 156.469 70.28ZM190.332 57.4C191.755 57.7033 192.899 58.415 193.762 59.535C194.625 60.6317 195.057 61.8917 195.057 63.315C195.057 65.3683 194.334 67.0017 192.887 68.215C191.464 69.405 189.469 70 186.902 70H175.457V45.43H186.517C189.014 45.43 190.962 46.0017 192.362 47.145C193.785 48.2883 194.497 49.84 194.497 51.8C194.497 53.2467 194.112 54.4483 193.342 55.405C192.595 56.3617 191.592 57.0267 190.332 57.4ZM181.442 55.37H185.362C186.342 55.37 187.089 55.16 187.602 54.74C188.139 54.2967 188.407 53.655 188.407 52.815C188.407 51.975 188.139 51.3333 187.602 50.89C187.089 50.4467 186.342 50.225 185.362 50.225H181.442V55.37ZM185.852 65.17C186.855 65.17 187.625 64.9483 188.162 64.505C188.722 64.0383 189.002 63.3733 189.002 62.51C189.002 61.6467 188.71 60.97 188.127 60.48C187.567 59.99 186.785 59.745 185.782 59.745H181.442V65.17H185.852ZM207.418 70.28C205.505 70.28 203.778 69.8717 202.238 69.055C200.722 68.2383 199.52 67.0717 198.633 65.555C197.77 64.0383 197.338 62.265 197.338 60.235C197.338 58.2283 197.782 56.4667 198.668 54.95C199.555 53.41 200.768 52.2317 202.308 51.415C203.848 50.5983 205.575 50.19 207.488 50.19C209.402 50.19 211.128 50.5983 212.668 51.415C214.208 52.2317 215.422 53.41 216.308 54.95C217.195 56.4667 217.638 58.2283 217.638 60.235C217.638 62.2417 217.183 64.015 216.273 65.555C215.387 67.0717 214.162 68.2383 212.598 69.055C211.058 69.8717 209.332 70.28 207.418 70.28ZM207.418 65.1C208.562 65.1 209.53 64.68 210.323 63.84C211.14 63 211.548 61.7983 211.548 60.235C211.548 58.6717 211.152 57.47 210.358 56.63C209.588 55.79 208.632 55.37 207.488 55.37C206.322 55.37 205.353 55.79 204.583 56.63C203.813 57.4467 203.428 58.6483 203.428 60.235C203.428 61.7983 203.802 63 204.548 63.84C205.318 64.68 206.275 65.1 207.418 65.1ZM223.824 48.44C222.774 48.44 221.91 48.1367 221.234 47.53C220.58 46.9 220.254 46.13 220.254 45.22C220.254 44.2867 220.58 43.5167 221.234 42.91C221.91 42.28 222.774 41.965 223.824 41.965C224.85 41.965 225.69 42.28 226.344 42.91C227.02 43.5167 227.359 44.2867 227.359 45.22C227.359 46.13 227.02 46.9 226.344 47.53C225.69 48.1367 224.85 48.44 223.824 48.44ZM226.799 50.47V70H220.814V50.47H226.799ZM242.021 64.925V70H238.976C236.806 70 235.114 69.475 233.901 68.425C232.687 67.3517 232.081 65.6133 232.081 63.21V55.44H229.701V50.47H232.081V45.71H238.066V50.47H241.986V55.44H238.066V63.28C238.066 63.8633 238.206 64.2833 238.486 64.54C238.766 64.7967 239.232 64.925 239.886 64.925H242.021ZM256.24 64.925V70H253.195C251.025 70 249.333 69.475 248.12 68.425C246.906 67.3517 246.3 65.6133 246.3 63.21V55.44H243.92V50.47H246.3V45.71H252.285V50.47H256.205V55.44H252.285V63.28C252.285 63.8633 252.425 64.2833 252.705 64.54C252.985 64.7967 253.451 64.925 254.105 64.925H256.24ZM262.583 48.44C261.533 48.44 260.67 48.1367 259.993 47.53C259.34 46.9 259.013 46.13 259.013 45.22C259.013 44.2867 259.34 43.5167 259.993 42.91C260.67 42.28 261.533 41.965 262.583 41.965C263.61 41.965 264.45 42.28 265.103 42.91C265.78 43.5167 266.118 44.2867 266.118 45.22C266.118 46.13 265.78 46.9 265.103 47.53C264.45 48.1367 263.61 48.44 262.583 48.44ZM265.558 50.47V70H259.573V50.47H265.558ZM281.796 50.26C284.082 50.26 285.902 51.0067 287.256 52.5C288.632 53.97 289.321 56 289.321 58.59V70H283.371V59.395C283.371 58.0883 283.032 57.0733 282.356 56.35C281.679 55.6267 280.769 55.265 279.626 55.265C278.482 55.265 277.572 55.6267 276.896 56.35C276.219 57.0733 275.881 58.0883 275.881 59.395V70H269.896V50.47H275.881V53.06C276.487 52.1967 277.304 51.52 278.331 51.03C279.357 50.5167 280.512 50.26 281.796 50.26Z" fill="#2F2F2F"/>
<rect x="20" y="23" width="55" height="8" fill="#FF4522"/>
</svg>
